<svg width="400" height="400" viewBox="0 0 400 400" fill="none" xmlns="http://www.w3.org/2000/svg">
    <circle cx="200" cy="200" r="200" fill="#4A5428"/>
    <path fill-rule="evenodd" clip-rule="evenodd" d="M384.706 276.841C394.559 253.183 400 227.227 400 200C400 89.5431 310.457 0 200 0C89.5431 0 0 89.5431 0 200C0 291.696 61.7082 368.979 145.862 392.586L113.214 99.2197C112.739 94.9576 117.499 92.1152 121.026 94.5538L384.706 276.841Z" fill="#ECE0CF"/>
    <ellipse cx="249.397" cy="229.094" rx="14.5346" ry="5.27766" transform="rotate(-14.6434 249.397 229.094)" fill="black" fill-opacity="0.2"/>
    <path d="M218.701 216.023C225.835 223.618 236.061 227.779 245.733 230.873C247.385 231.401 253.853 229.656 254.367 228.051C255.885 223.304 252.128 216.76 249.907 212.451L236.628 186.682C233.485 180.584 230.175 172.595 225.669 167.381C221.774 162.874 217.668 158.948 213.384 154.766C204.889 146.476 202.73 134.966 196.123 125.481C189.636 116.167 180.999 107.152 176.053 96.9188C173.72 92.0905 172.693 86.5671 170.863 81.5152C168.64 75.3757 163.739 70.8133 159.492 66.0432C156.21 62.3582 152.371 59.1328 148.9 55.5927C145.327 51.9496 139.733 47.9066 137.366 43.3137C138.283 46.8025 139.83 54.2354 139.598 57.819C139.35 61.6493 140.75 67.1843 141.87 70.8576C143.672 76.7667 143.684 83.3301 144.942 89.4494C147.395 101.376 153.371 110.651 152.225 123.227C151.585 130.249 155.174 137.806 158.468 143.692C160.86 147.964 164.5 152.645 165.779 157.387C166.19 158.91 165.154 160.935 165.34 162.639C166.043 169.088 172.71 175.5 176.639 180.427C183.044 188.458 192.459 193.799 199.915 200.756C202.97 203.606 206.696 205.18 210.032 207.619C213.52 210.169 215.803 212.937 218.701 216.023Z" fill="#761A18"/>
</svg>
